# xmcd
#
# Track frame offsets: 
#        150
#        4209
#        20428
#        39448
#        58391
#        75136
#        95028
#        113185
#        133542
#        153418
#        170696
#        189235
#        209340
#        227154
#
# Disc length: 3234 seconds
#
# Revision: 6
# Processed by: cddbd v1.5.2PL0 Copyright (c) Steve Scherf et al.
# Submitted via: ExactAudioCopy v0.99pb4
#
DISCID=b20ca00e
DTITLE=거미 - 거미 3집 - GUMMY 3 for the bloom
DYEAR=2005
DGENRE=R&B
TTITLE0=Gummitro
TTITLE1=Holic
TTITLE2=손 틈새로...
TTITLE3=아니
TTITLE4=어른아이
TTITLE5=오늘은 헤어지는날
TTITLE6=Trap
TTITLE7=평균
TTITLE8=혼자만 하는 사랑
TTITLE9=실수
TTITLE10=Secret
TTITLE11=옷
TTITLE12=저기 가는 사람
TTITLE13=ESCAPE
EXTD=YEAR: 2005
EXTT0=
EXTT1=
EXTT2=
EXTT3=
EXTT4=
EXTT5=
EXTT6=
EXTT7=
EXTT8=
EXTT9=
EXTT10=
EXTT11=
EXTT12=
EXTT13=
PLAYORDER=
